#!OML:ASF E:\inclinewalkrobotboard\Project 1\Capture day 1\Session 1\subject1.ASF
:FULLY-SPECIFIED
:DEGREES
384
root 7.5186 23.1749 -12.7206 -171.672 4.4104 179.168
lowerback -5.67304 -0.0336221 -5.96338
upperback 3.65803 0.393147 2.41036
thorax 6.99976 -0.131144 5.9638
lowerneck -4.77433 -3.18957 -5.99667
upperneck 37.5754 -0.46116 7.09654
head 13.549 1.58202 4.30322
rclavicle -1.39149e-015 3.97569e-015
rhumerus -59.0126 -47.44 -41.8483
rradius 14.3184
rwrist 37.076
rhand -14.9158 -37.1162
rfingers 7.12502
rthumb 11.246 -66.7947
lclavicle -1.39149e-015 3.97569e-015
lhumerus -26.3757 12.4466 86.735
lradius 17.3754
lwrist -30.9714
lhand -25.4085 -22.797
lfingers 7.12502
lthumb 1.11707 7.17978
rfemur -14.2574 8.41154 16.0786
rtibia 12.6534
rfoot -14.532 0.938636
rtoes -28.5007
lfemur -10.7015 -7.02392 -22.8766
ltibia 9.98008
lfoot -19.1274 2.40116
ltoes -60.5373
385
root 7.53369 23.1858 -12.7616 -171.241 4.38314 179.254
lowerback -6.19995 -0.0723205 -5.87633
upperback 3.39656 0.340198 2.48487
thorax 7.03083 -0.155071 5.99207
lowerneck -4.58627 -2.88267 -6.7319
upperneck 36.8705 -0.379966 8.09492
head 13.1774 1.59891 4.78963
rclavicle 1.2921e-015 1.19271e-014
rhumerus -58.3611 -46.9336 -42.7047
rradius 14.4627
rwrist 36.565
rhand -14.6542 -36.8464
rfingers 7.12502
rthumb 11.4983 -66.5111
lclavicle 1.2921e-015 1.19271e-014
lhumerus -27.4032 13.3242 86.2862
lradius 17.7174
lwrist -29.763
lhand -25.3589 -22.3852
lfingers 7.12502
lthumb 1.16491 7.59139
rfemur -14.1575 7.90493 16.1481
rtibia 11.8012
rfoot -14.2792 1.44105
rtoes -28.4685
lfemur -11.1901 -7.30755 -22.6768
ltibia 10.3232
lfoot -19.3451 2.63484
ltoes -60.5593
386
root 7.55217 23.1891 -12.8046 -171.004 4.32366 179.172
lowerback -6.56725 -0.155806 -5.99791
upperback 3.22098 0.247061 2.49688
thorax 7.06931 -0.207897 6.06631
lowerneck -5.51897 -2.97106 -6.28445
upperneck 37.6589 -0.268857 7.51832
head 13.7328 1.66615 4.57112
rclavicle -8.05078e-015 -2.38542e-014
rhumerus -58.1643 -47.0057 -42.8163
rradius 14.5091
rwrist 36.8395
rhand -14.7571 -36.1966
rfingers 7.12502
rthumb 11.3991 -65.8668
lclavicle -8.05078e-015 -2.38542e-014
lhumerus -28.1892 13.1235 86.1866
lradius 18.2379
lwrist -26.9466
lhand -24.4937 -21.5329
lfingers 7.12502
lthumb 2.00052 8.43751
rfemur -13.8762 7.6556 16.1003
rtibia 11.0427
rfoot -14.1554 1.52342
rtoes -28.7155
lfemur -11.4523 -7.43652 -22.702
ltibia 10.6252
lfoot -19.5178 2.64007
ltoes -60.5957
387
root 7.57902 23.1889 -12.838 -171.042 4.08842 179.279
lowerback -6.57766 -0.0664461 -5.91179
upperback 3.18756 0.360291 2.44609
thorax 7.02154 -0.144591 5.97569
lowerneck -5.58366 -3.12708 -5.91676
upperneck 37.7766 -0.608992 7.81251
head 13.829 1.628 4.60142
rclavicle 1.00386e-014 -1.07344e-014
rhumerus -57.824 -47.3099 -43.3171
rradius 14.6194
rwrist 36.5971
rhand -14.7379 -35.7275
rfingers 7.12502
rthumb 11.4175 -65.3967
lclavicle 1.00386e-014 -1.07344e-014
lhumerus -28.5369 11.9028 86.2994
lradius 17.9998
lwrist -25.2634
lhand -25.6629 -22.4173
lfingers 7.12502
lthumb 0.871337 7.56067
rfemur -13.2408 7.6538 16.3544
rtibia 10.2764
rfoot -14.1646 1.23167
rtoes -29.8711
lfemur -11.4198 -7.4835 -22.4589
ltibia 10.8628
lfoot -19.7669 2.46753
ltoes -60.8639
388
root 7.60399 23.1837 -12.8636 -171.091 4.00174 179.354
lowerback -6.59776 0.0366963 -5.89192
upperback 3.17807 0.49982 2.39098
thorax 7.00205 -0.0729991 5.92224
lowerneck -5.47973 -3.29096 -5.03986
upperneck 37.5639 -0.766831 6.8886
head 13.7117 1.55631 4.02051
rclavicle -9.44227e-015 -2.14687e-014
rhumerus -57.0466 -47.4847 -44.2678
rradius 14.7476
rwrist 36.188
rhand -14.5619 -36.1751
rfingers 7.12502
rthumb 11.5873 -65.8347
lclavicle -9.44227e-015 -2.14687e-014
lhumerus -28.7399 10.6166 86.4994
lradius 17.7205
lwrist -23.7422
lhand -26.0669 -23.1003
lfingers 7.12502
lthumb 0.481135 6.87888
rfemur -12.7974 7.36665 16.5505
rtibia 9.79412
rfoot -14.2181 1.35125
rtoes -31.3709
lfemur -11.3161 -7.58469 -22.2827
ltibia 10.9517
lfoot -20.0103 2.53532
ltoes -61.0538
389
root 7.62118 23.179 -12.9111 -171.352 3.96829 179.349
lowerback -6.68692 -0.0349128 -5.95553
upperback 3.23423 0.415613 2.4167
thorax 7.12694 -0.123944 5.97892
lowerneck -5.05604 -3.38412 -5.16031
upperneck 37.5839 -0.825789 6.8441
head 13.6353 1.52235 4.01413
rclavicle -4.47266e-015 -1.59028e-015
rhumerus -56.028 -47.3951 -45.279
rradius 14.8594
rwrist 35.9731
rhand -14.571 -36.7959
rfingers 7.12502
rthumb 11.5785 -66.4561
lclavicle -4.47266e-015 -1.59028e-015
lhumerus -29.324 9.75955 86.6405
lradius 17.8153
lwrist -22.6125
lhand -25.8185 -23.3527
lfingers 7.12502
lthumb 0.721079 6.62579
rfemur -12.0304 6.98097 16.6626
rtibia 9.3192
rfoot -14.2334 1.6813
rtoes -31.5617
lfemur -10.5819 -7.93231 -22.3363
ltibia 10.5476
lfoot -20.1353 2.86189
ltoes -61.1357
390
root 7.64494 23.1705 -12.9312 -171.247 4.33875 179.396
lowerback -6.78943 0.116017 -6.0347
upperback 3.14437 0.629113 2.34856
thorax 7.05769 -0.0178659 5.97758
lowerneck -5.34936 -3.35778 -4.77344
upperneck 37.5603 -0.852875 6.72043
head 13.6848 1.54193 3.89156
rclavicle 3.18055e-015 5.56597e-015
rhumerus -55.2973 -47.429 -46.2485
rradius 15.0966
rwrist 35.0957
rhand -14.9573 -36.685
rfingers 7.12502
rthumb 11.2059 -66.3657
lclavicle 3.18055e-015 5.56597e-015
lhumerus -29.6986 9.15832 86.4931
lradius 17.7581
lwrist -22.7479
lhand -25.2136 -23.5256
lfingers 7.12502
lthumb 1.30525 6.45013
rfemur -12.1149 6.98381 16.8069
rtibia 9.33112
rfoot -14.237 2.1163
rtoes -31.0108
lfemur -10.3751 -7.85627 -22.2313
ltibia 10.2077
lfoot -20.1492 3.247
ltoes -61.1792
391
root 7.66978 23.1704 -12.9422 -171.269 4.14518 179.202
lowerback -6.62562 -0.130174 -6.41797
upperback 3.04496 0.319661 2.37102
thorax 6.9049 -0.181346 6.17816
lowerneck -5.15666 -3.26622 -5.1745
upperneck 37.4849 -0.71487 6.859
head 13.6014 1.55527 4.02741
rclavicle -1.0138e-014 2.22639e-014
rhumerus -53.3101 -46.392 -48.6149
rradius 15.3841
rwrist 33.4248
rhand -15.3829 -37.7892
rfingers 7.12502
rthumb 10.7955 -67.4917
lclavicle -1.0138e-014 2.22639e-014
lhumerus -30.0407 10.2518 85.8692
lradius 17.3558
lwrist -24.7785
lhand -25.0333 -23.7754
lfingers 7.12502
lthumb 1.47944 6.19925
rfemur -11.9167 6.8861 16.7117
rtibia 9.13046
rfoot -14.2137 2.05108
rtoes -30.6233
lfemur -10.3299 -7.8095 -22.3564
ltibia 10.2288
lfoot -19.9894 3.06818
ltoes -61.0908
392
root 7.68722 23.1748 -12.977 -171.485 4.53826 179.034
lowerback -6.66749 -0.0472855 -6.5717
upperback 3.13 0.458876 2.2162
thorax 6.99957 -0.122463 6.11884
lowerneck -4.40841 -3.02999 -6.3349
upperneck 36.3741 -0.998943 8.76722
head 12.9688 1.44779 4.879
rclavicle -2.48481e-015 -6.75868e-015
rhumerus -51.7493 -45.5854 -50.69
rradius 15.6491
rwrist 31.7185
rhand -15.6542 -38.8891
rfingers 7.12502
rthumb 10.5337 -68.6051
lclavicle -2.48481e-015 -6.75868e-015
lhumerus -30.1642 11.1967 85.1004
lradius 16.8431
lwrist -27.4184
lhand -25.0649 -23.9311
lfingers 7.12502
lthumb 1.44887 6.04375
rfemur -11.6492 6.87915 16.5827
rtibia 9.09252
rfoot -14.133 2.45389
rtoes -30.1745
lfemur -9.7664 -7.87782 -22.5504
ltibia 9.90307
lfoot -19.8967 3.44489
ltoes -60.9988
